<svg xmlns="http://www.w3.org/2000/svg" width="128" height="128" viewBox="0 0 128 128" fill="none">
  <defs>
    <linearGradient id="stokaGradient" x1="0%" y1="0%" x2="100%" y2="100%">
      <stop offset="0%" style="stop-color:#8B4513;stop-opacity:1" />
      <stop offset="50%" style="stop-color:#D2691E;stop-opacity:1" />
      <stop offset="100%" style="stop-color:#CD853F;stop-opacity:1" />
    </linearGradient>
    <filter id="shadow" x="-20%" y="-20%" width="140%" height="140%">
      <feDropShadow dx="2" dy="4" stdDeviation="3" flood-color="#000000" flood-opacity="0.3"/>
    </filter>
  </defs>
  <g>
    <!-- Large package icon, centered -->
    <g transform="translate(32,24) scale(2)">
      <circle cx="16" cy="16" r="14" fill="url(#stokaGradient)" filter="url(#shadow)"/>
      <path fill="white" d="M16 7c-3.6 0-6.5 2.9-6.5 6.5s2.9 6.5 6.5 6.5 6.5-2.9 6.5-6.5-2.9-6.5-6.5-6.5zm0 9c-1.4 0-2.5-1.1-2.5-2.5S14.6 11 16 11s2.5 1.1 2.5 2.5S17.4 16 16 16z"/>
      <path fill="white" d="M9 21c-1 0-1.8 0.8-1.8 1.8s0.8 1.8 1.8 1.8 1.8-0.8 1.8-1.8-0.8-1.8-1.8-1.8zm0 2c0.1 0 0.2-0.1 0.2-0.2s-0.1-0.2-0.2-0.2-0.2 0.1-0.2 0.2 0.1 0.2 0.2 0.2z"/>
      <path fill="white" d="M23 21c-1 0-1.8 0.8-1.8 1.8s0.8 1.8 1.8 1.8 1.8-0.8 1.8-1.8-0.8-1.8-1.8-1.8zm0 2c0.1 0 0.2-0.1 0.2-0.2s-0.1-0.2-0.2-0.2-0.2 0.1-0.2 0.2 0.1 0.2 0.2 0.2z"/>
    </g>
    <!-- Stoka text -->
    <text x="64" y="120" text-anchor="middle" font-family="Inter, Arial, sans-serif" font-size="20" font-weight="700" fill="#8B4513">STOKA</text>
  </g>
</svg> 