<svg xmlns="http://www.w3.org/2000/svg" width="300" height="80" viewBox="0 0 300 80" fill="none">
  <defs>
    <linearGradient id="logoGradient" x1="0%" y1="0%" x2="100%" y2="0%">
      <stop offset="0%" style="stop-color:#8B4513;stop-opacity:1" />
      <stop offset="50%" style="stop-color:#D2691E;stop-opacity:1" />
      <stop offset="100%" style="stop-color:#CD853F;stop-opacity:1" />
    </linearGradient>
    <filter id="shadow" x="-20%" y="-20%" width="140%" height="140%">
      <feDropShadow dx="2" dy="2" stdDeviation="3" flood-color="#000000" flood-opacity="0.1"/>
    </filter>
  </defs>
  
  <!-- Package icon -->
  <g transform="translate(15,15)">
    <circle cx="25" cy="25" r="22" fill="url(#logoGradient)" filter="url(#shadow)"/>
    <path fill="white" d="M25 10c-4.1 0-7.5 3.4-7.5 7.5s3.4 7.5 7.5 7.5 7.5-3.4 7.5-7.5-3.4-7.5-7.5-7.5zm0 11c-1.9 0-3.5-1.6-3.5-3.5s1.6-3.5 3.5-3.5 3.5 1.6 3.5 3.5-1.6 3.5-3.5 3.5z"/>
    <path fill="white" d="M18 30c-1.4 0-2.5 1.1-2.5 2.5s1.1 2.5 2.5 2.5 2.5-1.1 2.5-2.5-1.1-2.5-2.5-2.5zm0 3c0.3 0 0.5-0.2 0.5-0.5s-0.2-0.5-0.5-0.5-0.5 0.2-0.5 0.5 0.2 0.5 0.5 0.5z"/>
    <path fill="white" d="M32 30c-1.4 0-2.5 1.1-2.5 2.5s1.1 2.5 2.5 2.5 2.5-1.1 2.5-2.5-1.1-2.5-2.5-2.5zm0 3c0.3 0 0.5-0.2 0.5-0.5s-0.2-0.5-0.5-0.5-0.5 0.2-0.5 0.5 0.2 0.5 0.5 0.5z"/>
  </g>
  
  <!-- Stoka text -->
  <text x="80" y="45" font-family="Inter, Arial, sans-serif" font-size="36" font-weight="700" fill="url(#logoGradient)" filter="url(#shadow)">STOKA</text>
  
  <!-- Tagline -->
  <text x="80" y="62" font-family="Inter, Arial, sans-serif" font-size="12" font-weight="400" fill="#8B4513" opacity="0.7">Inventory Management System</text>
</svg> 